<!-- Generated by IcoMoon.io -->
<svg version="1.1" xmlns="http://www.w3.org/2000/svg" width="32" height="32" viewBox="0 0 32 32">
<title>iconmonstr-fast-food-5</title>
<path d="M24 30.667h-16l-3.472-16 0.004 0.003-1.865-4.767 4.029-2.309-1.363-6.26 6.403 0.005 0.251 1.328h6.247l0.288-1.333 6.327 1.333-0.772 3.483 5.257 3.184-1.919 5.645-3.415 15.688zM16.3 16.301v-6.867l-2.497-0.512v3.343l0.868 4.008c0.541 0.032 1.084 0.041 1.629 0.028zM18.855 16.067c0.776-0.121 1.556-0.289 2.34-0.505l0.372-2.691-2.229-0.308-0.483 3.504zM10.475 15.551c0.715 0.205 1.432 0.368 2.155 0.491l-2.551-12.704-2.263-0.001 2.659 12.215zM25.689 13.836l1.233-3.625-1.969-1.192-1.472 4.601-0.172 1.252c0.789-0.299 1.583-0.644 2.38-1.036zM8.26 14.779l-0.735-3.373-0.579-1.651-1.789 1.025 1.224 3.128c0.624 0.323 1.249 0.613 1.879 0.871zM18.599 10.441l2.404 0.332 1.456-6.567-2.403-0.507-1.457 6.741zM16.46 4.667h-2.927v2.159l2.927 0.6v-2.759z"></path>
</svg>
